<?xml version="1.0" encoding="UTF-8"?>
<svg id="Livello_1" data-name="Livello 1" xmlns="http://www.w3.org/2000/svg" viewBox="0 0 1920 1080">
  <defs>
    <style>
      .cls-1 {
        fill: #2e3192;
      }
    </style>
  </defs>
  <g id="ZDmcxL">
    <g>
      <path class="cls-1" d="M1413.66,644.57c-11.39-13.57-13.21-15.04-14.99-33.51-.28-2.9.62-7.52,0-9.78-.14-.52-5.68-4.41-7.42-7.81-2.85-5.59-2.37-12.16-4.26-16.67-.76-1.81-3.62-1.84-4.22-3.93-1.23-4.33,5.72-14.57-1.62-19.28-3.35,4.45-6.77,10.57-12.6,5.57-1.88-5.75.04-10.48-2.41-16.58-2.32-5.78-15.17-15.64-15.47-20.55-.11-1.86,2.28-5.22-.54-6.44-1.16-.51-4.25,4.49-6.01,4.97l-.48,5.02c-2.89.69-10.71-1.81-12.54.96-1.2,1.8.12,5.25-.61,7.42-.39,1.17-2.1,1.33-2.48,1.96-5.26,8.76-3.16,3.57-9.34,8.18-1.8,1.34-2.28,3.9-4.06,4.94-7.73,4.48-3.51,2.22-8.43,8.57-2.79,3.6-10.13,6.1-11.05,7.97-2.22,4.5,4.11,12.68,1.85,17.78-.54,1.22-2.32,1.17-2.39,1.83-.22,2.08,1.84,3.94,2.06,5.97.41,3.65-7.99,18.22-13.46,17.44-3.94-.38-5.53-12-7.06-16.01-4.35-11.44-10.59-21.27-15.21-31.79-5.23-11.9-2.02-22.01-4.28-34.23-5.11,5.13-8.54,7.17-15.32,2.83s-3.44-9.26-3.76-9.73c-.26-.37-5.53-5.4-6.39-6.12-3.34-2.83-9.07-3.38-9.61-8.92-1.06-.79-9.43,3.07-13.25,1.78-2.85-.96-3.7-11.52-7.26-1.77-7.02-1.89-22.45,3.67-25.65-4.33-1.27-3.18.14-6.65-3.26-8.74l-3.16,4.83c-5.59-.04-11.92,1.68-16.41-2.29-2.51-2.21-1.25-4.79-6.94-3.54l-.13-3.87c-6.33-.1-3.01-7.77-6.36-11.12-3.6,4.99-7.46-1.08-11.49.47,3.14,7.69,8.7,14.69,14.94,20.06,1.75,1.51,5.7,2.28,6.58,4.48,1.27,3.19-3.81,8.26,6.41,10.57,11.4,2.57,14.08-13.87,18.04-10.59.27,10.53,4.45,11.53,14.02,12.01l-.59,4c1.43,2.81,6.43.03,5.39,8.23-1.01,7.98-5.46,5.44-6.9,7.41-1.92,2.62.11,10.59-2.39,13.38-1.29,1.44-3.75.72-5.49,1.51-.4.18-6.87,4.06-7.35,4.4-1.49,1.03-1.47,4.5-3.68,5.57-2.64,1.28-6.16.04-9.51,2.49-3.67,2.68-2.07,6.53-2.51,6.99-.38.4-8.81.88-10.99,1.52-2.78.83-4.39,3.41-4.68,3.48-3.34.74-7.89-.67-11.56.26-7.21,1.84-11.36,18.09-19.76,7.27-4.93-6.35.28-14.16-1.41-19.55-.83-2.64-4.08-4.28-5.43-6.61-1.47-2.54-1.4-5.34-2.45-7.55-2.92-6.15-7.73-9.63-10.89-15.11-3.72-6.46-4.27-13.55-8.01-19.99-2.47-4.25-9.27-9.46-10.28-11.72-1.17-2.61.12-6.59-.67-7.84-.51-.8-5.97-.83-4.86-5.14l-1.57,2.08c-5.83.1-6.15-6.66-10.41-9.08-.4,10.64,19.68,24.57,19.09,32.51-.26,3.46-3.65,4.48-1.36,9.26,1.38,2.88,5.29,2.76,7.14,5.85,2.21,3.7,1.72,10.54,4.25,15.76,3.29,6.8,8.39,10.28,10.64,18.4.33,1.19,0,3.83.31,4.16.38.4,4.5-.38,6.38,2.12.43.57,5.98,12.25,6.15,12.95.48,2.05-.8,4.42-.5,4.85s7.75,5.06,8.93,5.62c4.03,1.92,12.69,4.53,16.72,2.77,1.81-.79,3.12-3.11,5.2-3.8,1.95-.65,4.12-.13,6.04-.96,2.32-1.01,3.93-6.53,8.02-4l5.82,8.86-11,19.98c-2.45,15.79-14.33,26.97-25.81,37.19-8.06,7.17-6.09,4.44-12.57,13.43-1.55,2.14-9.93,11.04-10.22,11.77-2.26,5.58-.78,12.55-4.22,18.29l3.07.55c.03,6.09-.68,12.83,1.19,18.7.51,1.58,2.32,2.21,2.73,4.27.81,4.13,1.91,18.36,2.05,23.03.21,7.12-2.5,7.05-5.27,11.75-.6,1.02-.55,3.31-.87,3.59-.94.83-6.04-.68-7.7.32-.47.28-.69,2.09-1.63,2.82-1.16.91-3.51,1.01-4.11,1.92-1.06,1.59.22,4.55-1.36,6.64-1.44,1.91-6.22,1.6-8.52,5.48-4.64,7.8,1.1,10.72,1.39,15.47.11,1.79-.99,3.88-1.06,5.95s1.09,4.65.86,5.87c-.85,4.47-8.64,6.37-12.71,6.67-.2,4.97.44,13.99-2.19,18.31-1.52,2.5-5.07,1.1-6.36,3.64s-.55,8.32-2.44,11.31c-1.19,1.89-9.18,5.36-10.79,6.96-1.85,1.85-2.61,8.58-5.95,9.55-2.13.62-4.73-.03-7.35.65-3.82,1-6.43,5.78-10.49,5.63-2.22-.08-1.49-2.4-3.09-2.95-2.26-.79-6.15.19-8.72-.19-3.7,11.2-15.4,7.44-20.31-.82-4.95-8.33-.35-5.24,1.64-12.13-5.85-.64-6.37-4.63-5.07-9.93-6.02-.44-3.49-4.7-4.63-8.8-1.28-4.57-2.53-9.85-8.3-8.29-.26-1.81.71-3.57.63-5.32-.89-19.37-3.23-28.55-12.43-45.37-.96-1.76-3.79-3.89-3.97-4.91-.1-.54-.24-9.1-.27-10.86-.18-9.66,3.93-10.91,7.8-18.28,1.02-1.95.77-4.84,1.52-5.99.79-1.22,4.12-.87,3.77-4.7-.16-1.78-3.24-5.05-3.79-8.3-.57-3.4.36-7.24-.67-10.33s-6.68-3.94-2.56-10.92l-3.07-.53c-1.05-3.84,2.83-6.49.87-9.74-4.54-3.86-8.15-8.49-12.28-12.77-1.12-1.16-3.54-2.14-4.03-2.97-1.24-2.12.2-6.38-2.48-8.5,9.58-3.65,4.56-7.2,4.93-13.96.14-2.63,3-7.44,1.88-9.35-5.19-4.15-11.43-3.47-17.27-5.24-10.78-3.27-4.35-7.62-8.05-11.95-1.72-2.02-10.52-.98-13.32-.3-4.68,1.12-12.25,7.41-16.7,8.3-6.92,1.39-17.48-4.05-24.87,1.14-2.07,1.45-2.51,4.54-5.59,5.47-10.39,3.12-15.84-14.33-20.58-18.54-1.95-1.73-6.15-1.87-6.36-2.14-.64-.8.51-3.93-.23-4.79-.32-.37-2.79-.11-3.96-1.52-.99-1.2-.8-3.51-1.87-5.13-1.34-2.03-4.71-3.79-5.91-6.09-2.49-4.78-.33-11.71-9.13-10.38l2.51-10.99c-1.86-3.37-4.67-5.38-8.5-6.03,4.05-3.91,9.44-6.14,10.77-12.73-.64-12.3-4.52-25.12-1.29-37.27.71-2.66,3.95-3.67,1.52-7.98h4.01c-4.22-10.68,3.84-8.57,6.87-13.63,1.47-2.45,1.91-6.52,2.13-9.38l7.01.56c2.24-7.27,9.66-6.6,10.93-14.11.57-3.39.25-14.6,1.97-16.85.85-1.12,3.42.49,3.65-3.66l8.44.07c-1.05-6.03,5.23-9.25,6.02-15h1.47c1.78,2.36,13.45,6.63,15.85,6.06,1.33-.32,1.71-4.8,2.93-5.8,1.63-1.34,5.98-.79,8.01-1.49,1.89-.65,2.58-2.82,5.3-3.78,3.03-1.06,5.85.41,8.84-.02,2.78-.4,4.65-2.57,8.06-3,6-.74,13.63,1.13,18.9.71,3.29-.26,4.63-3.45,8.9-2.52.41.09,6.77,3.04,6.81,3.42.19,1.52-.96,3.29-.79,4.8.27,2.48,2.77,4.89,1.75,8.96l-4.59,2.62v3.1c4.05.63,4,4.09,7.53,5.46,3.75,1.45,15,1.09,16.54,3.49.75,1.17-.03,3.28,1.06,4.11,1.57,1.19,5.8.84,7.84.82.64,5.28,8.11,4.8,12.56,5.06-3.17-7.13,4.07-18.29,12.3-15.79,1.9.58,3.2,3.5,5.43,4.57,4.68,2.24,11.08-.63,10.28,7.23,8.73-2.22,13.06-1.73,18.98,4.99l1.06-5.94c7.46-2.13,16.91,4.99,21.8-1.71,6.01-8.22,7.79-18.51,6.15-28.35-8.28.55-14.25,2.99-21.34-2.83l-8.19,4.5c-2.34-3.42-9.58-5.43-11.52-8.11-1.54-2.13-2.11-7.16-3.04-9.77-.36-1.02-2.11-.49-1.95-2.18s1.69-3.96,2.64-5.5l6.4-7.08c-3.27-.17-5.35,2.73-8.62,2.96-3.74.27-6.42-3.46-9.42-.48-2.26,2.25,2.7,6.24-5.79,5.67l-1.22,3.25c-.03.86,9.98,3.1,8.05,7.58h-5.99s.96,5.96.96,5.96c-5.36,1.16-11.45,2.37-10.06-4.91l-2.9-.05v-2.99s4.99-.99,4.99-.99c-6.96,1.16-4.93-2.22-6.94-5.32-.73-1.14-2.65-1.19-3.52-2.72-.73-1.28-.43-3.17-1.48-4.57-2.25-2.98-4.35-.59-2.49-8.41-5.93-1.51-7.5-6.58-11.61-9.45-1.75-1.22-5-1.56-6.06-2.95s-.52-3.52-1.11-4.37c-.55-.81-3.36-.69-4.29-2.22-1.37-2.26,0-8.07-5.2-8.84-2.42-.36-4.62,5.17-4.15,7.14.36,1.52,3.22,3.08,4.26,4.78,2.4,3.92,5.96,12.35,10.62,14.45,2.53,1.14,4.92-1,6-.13.88.71,1.02,2.98,1.96,4.1,1.34,1.6,14.44,10.95,8.45,12.48-2.76.94-6.18-4.81-7.96-2,.36,5.88,1.29,11.88-6.49,12.02l1,6.99c-4.16-.51-11.43-1.6-11.98-6.51-.39-3.41,8.38-.32,9.88-1.6l.97-9.76c-5.66-.48-1.94-5.36-7.83-4.16.8-6.09-3.43-4.49-6.94-6.56-2.62-1.54-10.75-7.73-11.84-10.16-1.53-3.42-.16-9.28-5.74-9.28-2.53,0-1.21,1.27-1.58,2.94-8.18-1.21-6.02,1.62-10.58,5.97-5.28-2.67-8.84-5.13-15.26-3.76-1.39,2.3.25,6.04-.56,7.85-.32.7-9.16,11.37-9.81,11.77-1.04.64-2.81.13-4.29,1.19-1.27.91-2.7,4.51-4.36,5.72,8.03,9.92-1.06,9.54-3.51,13.42-.98,1.55-.37,4.35-2.54,5.45-2.93,1.49-9.74-.1-13.47.53-1.53.26-2.61,1.67-4.12,1.93-7.18,1.25-5.75-5.2-8.05-5.91-1.07-.33-5.32,1.24-7.9,1-7.05-.65-3.37-7.52-4.62-8.94-.51-.58-4.77-.11-4.84-3.61-.07-3.82,6.28-7,6.57-8.98.17-1.19-.75-4.04-.68-6.06.2-5.91-.72-7.06-.94-11.07-.12-2.12,2.49-4.61,2.23-7.21,11.49-3.95,22.2,3.22,33.72,2.72,2.29-3.81.07-9.88,1.22-13.31.53-1.58,4.51-1.55,2.86-3.59-.12-.15-1.78-.05-2.45-1.02-1.54-2.22-.31-5.08-4.02-8.03-4.66-3.69-11.74-1.52-9.41-9.88l12.9-3.11-.96-4.59,1.47-2.4,8.44,2.94.16-2.77c6.19,1.35,7.14-7.71,9.55-9.26,2.67-1.72,7.2-.46,10.19-1.06,2.62-1.65-3.37-13.46,6.13-9.85.1-6.4,10.97-4.9,15.91-7.11.37-3.13.22-7.96-1.86-10.44-1.03-1.22-3.31-1.51-3.87-3.12s-.59-7.97.77-8.91l7.17-1.02.98-3.77-3.06-2.17.95-3,7.02-.47c.66,1.79-1.78,2.62-1.76,3.5.01.68,2.41,2.39,3.02,3.75,3.4,7.64-7.85,10.73.31,21.67,4.47,5.99,6.33.48,11.03.07,2.27-.2,3.9,1.17,6.41.59,3.23-.76,6.79-5.2,10.6-5.57,4.56-.45,8.68,4.2,13.81.88,1.18-.76,6.01-11.81,6.37-13.62.73-3.58-.85-9.32,1.21-11.79,4.7-5.62,7.47,13.45,13.01,2.03-.39-1.7-11.06-3.31-3-11.03,6.28-6.02,10.68-4.52,17.99-1.49.64-3.35-1.85-5.64-3.68-8.07-8.97,1.76-11.44,8.91-21.66,2.91-6.13-3.6-10.08-19.24-6.49-25.19,1.92-3.18,14.14-4.12,11.86-13.65l7.98.98c.35-6.55-12.42-9.1-15.76-5.76s-1.07,10.54-1.68,11.76-5.48,3.87-7.09,5.01c-.87.62-1.11,2.32-1.74,2.72-3.95,2.53-8.95-.56-10.54,9.03s8.27,11.81,8.76,18.86c.62,8.86-7.45,8.7-9.5,13.42-1.02,2.36,1.3,4.19.07,6.93-.2.45-5.49,7.3-5.86,7.7-.57.62-6.23,5.65-6.63,5.83-1.26.54-4.36-1.32-5.9-1.63l-.27-7.78c-4.83.45-4.09-7.37-5.98-11.46-6.09-13.16-15.54,2.4-25.39.39-3.67-.75-1.77-3.18-2.74-5.26-.76-1.64-2.62-2.49-2.72-4.19-.12-2.1,2.55-4.98,1.93-7.51-6.55,1.9-5.99-13.02-4.81-14.89.28-.45,2.83-.75,3.83-1.65,6.07-5.49,3.56-2.86,10.25-5.77,2.81-1.22,4.51-4.66,8.73-3.77l.46-6.04c8.09-1.06,5.52-2.63,8.15-6.85,1.03-1.66,2.6-2.3,3.5-4.49,2.96-7.15.55-4.26,5.46-10.52,2.76-3.51,6.78-10.66,11.21-11.82,2.13-.56,4.55.1,6.53-.47,4.26-1.22,8-3.81,12.62-3.89-1.5-5.29,5.27-4.81,5.2-7.37-.13-4.78-4.8-3.56-5.08-7.5,5.12.48,5.65-3.75,7.02-5,2.75-2.53,1.24,5,3.49,5.99l2.98-3.99c.97,3.21,6.42,6.32,6.52,1.48.01-.54-4.42-1.4-3.01-4.47,5.55-2.12,5.78-2.04,9.99,1.99-.02-3,.8-4.55,4.01-4-1.42,11.34,7.24.98,9.32,1.16,1.09.09,5.77,2.82,6.25,3.84.81,1.72-1.96,4.64,1.02,5.92,14.9,3.64,27.54,13.28,41.47,19.52,5.15,4.26-1.04,11.8-6.03,13.09-6.77,1.76-12.86-.04-19.03-2.52,1.63,5.05,2.24,10.72,5.16,15.33,1.67,2.63,9.63,11.25,9.84,4.68-3.42-.3-6.15-2.73-5.87-6.32,1.89-4.29,10.37-4.52,12.43-.66.82,1.53-1.21,6.41,1.8,5.81,8.54-3.99-.67-6.51-1.27-8.5-.58-6.77,6.16-4.98,8.65-6.61.86-.56,1.02-3.15,2.87-3.53,2.4-.49,9.18,3.73,10.39,2.79l-6.68-18.52c9.12-8.35,15.02,2.27,14.73,11.48,6.66.99,9.25-6.35,14.24-9.16,2.14-1.2,16.18-6.4,17.53-5.61.49.29,1.29,3.3,2.68,3.8,3.09-7.51,8.52-1.83,12.8-3.12,2.36-.71,2.7-5.97,8.07-4.94,2.35.45.38,8.21,3.12,7.07,6.99-4.94-1.26-7.17.95-13.06,2.26-3.19,20.2,1.43,23.8,3.34,5.07,2.69,6.01,6.09,9.46,9.5,2.79,2.75,5,.64,3.88-2.8-2.15-6.6-13.09-11.97-11.59-21.41.63-3.98,5-3.43,6.05-5.32,2.71-4.85-1.71-18.33,9.52-18.28,9.47.04,10.57,20.23,12.5,27.49.99,3.73,1.48,7.41,2.38,10.62,1.57,5.61,7.87,13.17,2.12,19-1.94,1.97-5.05,1.63-7.47,2.57-7.73,2.99,1.36,6.82,6.97,4.93,6.49-2.19,7.52-17.52,9.89-19.1,3.29-2.19,9.63.06,11.55,3.53,2.96-4.96-4.42-10.94-8.85-10.02-.72.15.11,2.76-5.17,2.08-7.36-.95-3.33-8.65-4.91-14.15-.69-2.4-3.14-1.87-3.59-4.38-.52-2.83-.98-19.27,5.07-15.09,2.33,7.26,2.69,14.85,11.46,17.55,3.34,1.03-.38-4.18-.52-5.57-.54-5.17,2.59-7.39,7.5-6.42,3.42.68,2.46,3.68,3.75,4.76,1.52,1.28,6.15.58,8.33,2.17s2.42,7.33,6.42,7.07c-.16-3.65-3.74-10.99-7.03-12.46-1.74-.77-4.21-.1-5.48-1.52s-2.19-9.22-1.27-10.81c7.45-5.27,16.4-2.9,24.78-2.21.77-7.85-8.5-2.48-5.83-11.84,8.9-4.5,17.69-7.17,27.84-6.15v-5c6.45,3.24,10.68-4.37,13.51,3.02,7.25-6.49,13.76.57,21.48-2.03l-3.06-2.54c4.71-6.94.65-13.29,11.57-13.52,9.67-.21,10.46,10.38,15.48,11.7,2.89.76,3.07-2.07,5.07-3.07,3.39-1.7,13.92-.93,16.9,1.01,1.18.77,1.97,3.15,3.54,4.46,4.5,3.75,9.13,1.48,7.29,10.25-1.94,9.26-15.56,10.79-22.09,15.9-1.55,1.21-3.9,2.48-3.66,4.83.63.61,13.03-6.54,15.55-6.94,6.41-1.01,24.11-.69,30.97-.1,9.39.81,17.07,6.31,25.89,8.97l3.21-8.02c5.86-1.45,14.34-1.89,19.71,1.24s7.94,11.09-.35,10.87l.05,2.91c4.02.65,18.9,7.96,21.51,4.12.97-1.43-.31-4.71,1.94-6.03,2.28,2.02,4.79,5.79,8.08,5.98,2.38.14,4.28-1.88,6.93-2.07,5.75-.42,11.82,3.68,17.49,1.06l-2.44-7c1.59-3.93,5.87-4.08,8.94-6.66,2.68-.02,3.5,3.95,5.16,4.52,4.37,1.48,9.16-2.11,11.99,5.23,5.2-1.66,14.43-3.36,19.65-2.1.34.08,2.61,3.61,4.37,4.85,2.94,2.08,13.83,7.6,17.1,7.98,6.57.75,10.82-4.61,21.05-2.13,9.04,2.19,13,14.05,18.76,14.33,4.23.2,2.51-2.85,4.08-4.09,5.65-4.49,14.29.65,19.99,1.03,2.45.16,5.31-1.15,6.67-.8,1.73.44,3.82,4.47,7.69,2.86-.22-12.33,5.71-6.8,12.61-6.11,5.19.52,10.56-.38,15.63,1.37,3.08,1.07,4.46,3.32,7.47,4.53,8.26,3.34,17.9.79,22,11.22l11.3-.02v5c8.14-.89,8.96,3.31,12.5,9,.98-3.17,6.01-4.27,9.01-4.09,3.4.21,4.24,3.21,7.19,3.88,3.2.73,7-.06,10.3.21,1.14,9.19-3.23,8.77-10,11.53l3.97,6.95c-5.32,13.55-11.45-1.21-12.69-1.48-2.08-.47-4.51.43-7.07-.64-1.61-.67-1.23-2.91-3.69-3.36-2.86-.53-6.42.59-9.36-.16-2.28-2.39-1.95-14.05-7.18-11.36s1.44,8.38.36,11.26c-1.16,2.96-9.85,2.93-8.27,6.69,1.13,2.69,14.39,5.19,14.93,14.17.53,8.81-9.11,1.13-11.47,1.38-3.22.34-8.46,9.33-14.99,5.05l-6.56,16.98c-6.1.36-5.72-8.21-12.39-7.96-1.3.05-17.74,8.51-18.62,9.44-2.2,2.31-3.2,6.82-3.77,9.91,4.3,4.17,10.48,7.95,10.77,14.57l-3.92,1.67.92,11.35-4.97-.98c2.12,3.74-7.86,23.26-9.67,23.87-8.36,2.81-10.21-13.48-12.44-18.26-3.87-8.29-6.41-10.2-5.94-21.13.36-8.43,3-8.18,6.46-13.56,2.21-3.44,4.43-8.03,7.06-10.94,5.02-5.54,12.41-6.31,7.51-15.98-6.1-.74-3.95,8.46-8.5,9.04-5.82.74-5.72-9.33-15.9-7.99-11.15,1.47-6.45,15.42-10.13,20.91-1.76,2.62-10.85,4.93-13.47,2.56-1.42-1.28-.54-3.24-1.2-4.29-.39-.62-5.19-2.37-6.26-2.28-3.01.26-2.59,3.69-4.01,5.06-2.65,2.54-20.29-.56-25.99.01-13.75,1.39-11.85,8.48-17.71,18.29-2.69,4.51-5.84,8.48-9.56,12.17,1.97,6.48,11.67,2.82,9.76,11.51,4.79-.01,2.35-5.91,7.3-5.67,10.31.49,15.5,13.07,14.6,22.06-.27,2.65-1.95,5.41-1.84,8.04.14,3.11,2.93,6.49,2.86,9.96-.11,5.36-12.16,29.41-15.95,34.09-3.26,4.02-6.03,6.72-11.48,6.61-2.04-.04-4.42-1.27-5.85-1.13-.71.07-.76,1.61-1.39,2.01-7.34,4.68-3.66,3.13-4.47,11.83-4.93,1.48-4.23,8.19-9.78,8.22-1.04,1.37,7.39,7.63,8.98,9.51,4.86,5.75,9.92,15.79,6.27,23.24-2.31,4.72-14.97,7.17-15.34-.25-.27-5.41,4.68-8.29-3.48-9.47,2.22-8.54-5.24-11.18-11.43-14.55-.51-2.06,3.65-2.81,4.5-4.47,2.17-4.22-1.9-5.58-5.52-4.61-2.91.78-12.72,10.95-14.79,3.89-.98-3.33,1.26-7.74-1.7-10.27-4.03.94-4.03,5.96-5.77,7.71-2.04,2.05-6.77.99-6.82,5.74s4.85,8.68,9.36,7.36c2.77-.81,9.23-11,14.23-.84,5.06,10.29-7.06,5.57-11.03,12.04-1.39,3.07,2.74,11.45,4.68,14.31,1.68,2.47,7.1,6.5,7.64,8.36.65,2.27-.11,5.05.45,7.55.76,3.39,6.26,19.05,3.6,20.64l-3.8.16c1.38,4.61-4.17,7.27-4.86,9.65s.47,5.38-.68,7.32c-1.95,3.28-10.35,1.21-7.92,8.01-7.58.92-4.44,5.64-6.58,7.5-4.63,4.03-14.77.34-20.07,1.93-4.93,1.48-11.65,11.36-15.44,11.56-1.69-.73-1.33-10.38-4-9.01-2.33,1.32-.92,4.36-1.73,5.78-.54.96-7.37,3.46-9.06,7.5-3.83,9.22,10.78,16.12,14.71,21.77,4.89,7.04,5.62,18.27,3.45,26.32-2.27,8.43-11.77,12.34-16.9,19.1-3.47,1.49-6.08.57-6.48-3.36-.44-4.32,3.92-3.74.49-8.61-4.14-5.88-5.08-.72-11-1.51.87-6.83-.31-13.05-8.33-12.9-2.41.75-3.31,6.43-3.01,8.73.28,2.15,6.43,17.77,7.64,18.86,1.53,1.38,4.37,1.45,6.15,3.36.88.94,6.9,8.42,7.56,9.44,5.01,7.72,1.97,17.12,1.99,25.52-3.93.31-7.21-.05-11.01-1.01,1.48,1.76,4.63,3.93,4.78,4.21.64,1.13.08,3.98.65,5.86.48,1.59,3.15,10.08,3.56,10.44.74.66,5.63,1.89,6.01,1.49.45-1.92-1.37-5.15,1.5-5.01,6.05.29,9.23,3.98,8.5,10.01l-5.99-.99.83,15.34c-2.55,2.92-6.76,4.84-10.39,2.71-1.45-.85-11.98-13.74-13.84-16.15-3.19-4.12-8.68-10.76-10.78-15.22-4.93-10.47-2.46-13.17-13.34-21.66-2.36-1.84-11.97-6.43-12.38-7.68-1.69-5.17,5.98-7.64,10.24-6.17,1.92.66,3.7,6.15,6.13,7.86s5.43,1.58,8.07,2.93c6.18,3.15,6.68,9.6,16.46,12.04ZM1078.66,362.57c-3.33-.99-5.2,2.23-7.7,2.79-2.28.51-7.16-.31-8.17.34-.55.35-.48,2.78-1.35,3.64-1.32,1.3-5.66.39-4.77,2.71,1.25,3.25,6.06,2.37,8.84,2.65l.74,3.89c-6.29,2.61-13.62,6.27-20.43,4.25-1.37-.41-2.58.3-2.19-1.79.63-4.24,8-4.56,7.02-9.47l-4.88-1.13-.11-6.89-4.9.11c-1.4,5.96-1.53,13.77-7.61,16.88l-2.48-2.97c.24,3.07-2.93,5.77-3.56,7.94-.69,2.38-.07,4.49-.5,6.5-.62,2.9-3.68,5.58-1.47,9.58l15.94-1.11,20.09-5.01c4.72.27,4.45,4.29,6.47,5.53.45.28,9.18,3.22,9.75,3.34,4.9,1.01,16.3,1.65,16.36-5.25.07-8.54-6.94-7.13-10.58-9.49-2.61-1.69-3.98-5.18-6-7.03-5.05-4.6-13.97-3.39-6.93-11.94.99-1.2,9.93-6.77,8.43-8.06ZM1148.66,374.56c-1.88-3.52.1-5.27.61-7.93.78-4.11-4.08-.18-5.14-.07-3.38.36-9.12-3.02-13.19.3-.71.58-1.12,2.31-2.22,3.24-3.05,2.59-9.74,6.6-10.04,11.02-.25,3.74,6.93,16.3,9.56,19.36,3.01,3.52,6.81,3.97,9.28,7.74,1.01,3.72-2.87,2.68-3.65,3.55-.61.68-.41,4.39-1.39,6.15-1.22,2.18-4.62.8-1.59,5.92,1.44,2.43,11.64,10.34,14.27,10.35l9.57-5.29-6.07-27.33c4.16-1.16,3.41,4.09,6.98,3.99,1.43-3.51.95-6.37-.1-9.88l-5.33-.17-2.06,5.04-1.93-8.05-8.61-1.39-2.87-8.97,4.92-1.6c-1.61-5.81,4.3-6.61,8.98-5.99ZM1199.65,365.58l-7.99-.02-.12,6.87-4.93,1.75.53,10.44.99.67c4.49-2.84,6.44,3.33,10.06,3.25,5.72-1.21,2.31-5.86,2.75-8.33.16-.92,1.62-1.68,1.76-3.13.06-.64-1.97-.23-2.61-2.48-.48-1.68.14-8.42-.43-9.03Z"/>
      <path class="cls-1" d="M512.53,217.72l-5.94.28-1.44,5.56c-4.62,4.84-11.02.92-15.48-1.99-1.35,5.9,7.85,3.59,8.9,6.64.45,4.05-1.6,10.58-5.85,11.92-2.57.81-6.21,0-8.39,1.37-1.19.75-2.11,4.81-3.65,6.6-3.38,3.91-12.17,7.94-16.56,12.44s-9.56,11.4-8.33,17.92l6.81,2.69,2.74,11.51c3,1.94,5.78-.19,8.79-.13,7.83.16,7.61,6.17,12.03,9.06,2.61,1.71,5.61,1.36,7.45,2.55,1.38.89,2.3,4.25,4,4.9,1.99.75,7.43-2.08,10.05-1.46,2.06,6.99-5.22,22.66.27,27.72,4.76,4.39,7.07-5.35,11.24.26,3.99.02,1.49-24.13,5.53-27.45,1.24-1.02,3.95-.93,5.54-2.46,4.64-4.5-2.83-20.75-2.57-27.06l6.03-1.71c2.61-6.59-1.19-12.85.2-19.57.23-1.11,4.05-8.51,4.67-9.07,3.68-3.31,7.87,2.8,10.62,3.33,3.26.62,7.6-.72,10.77.23,2.56.76,6.6,7.26,9.17,8.83s9.29,1.31,7.06,5.97c-.9,1.88-3.03,1.5-3.57,5.45-1.34,9.74,2.79,14.85,12.79,10.8,6.43-2.6,12.07-27.2,14.3-3.28l5.82,1.18.12,7.87h4.02c1.37,4.74-3.19,5.97-3.01,9.99l3.96.05,1.05,8.95,6.98-2,.02,4c2.08-.25,3.44-1.93,4.97.49l-4.97,8.5c.48.47,7.44-4.57,10.51-1,1.68,1.95,2.17,14.99,1.35,17.37-1.36,3.98-8.94,1.15-11.9,2.06s-3.51,3.87-5.6,5.44c-2.68,2-13.16,3.21-16.81,3.18-3.18-.02-12.5-2.43-14.85-1.88-1.6.37-3.05,3.3-4.77,4.27-4.81,2.72-9.97,2.73-12.92,9.08,7.71.67,10.33-9.93,19.28-7.3,7.67,2.25,1.23,7.99.81,9.48-1.99,7.22,17.73,9.82,18.73,11.46,4.17,6.82-9.67,8.6-12.76,10.42-4.74,2.8-13.89,17.59-16.68,3.39,1.61-5.57,14.52-6.85,14.6-13.96-8.8-2.28-14.14,12.33-19.02,14.48-1.58.7-3.17.16-4.22.53-.49.17-6.82,4.81-7.78,5.48s-2.54-.6-3.48.42c-3.07,3.32-3.02,7.81,1.45,9.67l-.93,2.92c-3.41,2.69-8.05.51-11.77,2.23-3.14,1.45-3.67,6.68-4.39,7.11-1.36.81-4.09-.79-6.36,1.15-3.34,2.85-2.02,11.16-2.64,11.87-.35.4-7.8,2.22-7.64,5.66.04.91,3.86,2.97,2.72,9.93-.78,4.76-3.71,4.26-4.92,6.33-.55.94-.78,4.03-1.03,4.22-.77.57-3.69-1.24-5.29-.85-1.25.3-2.86,2.76-4.33,3.74-1.24.82-3.55.77-4.14,1.35-.72.71-.47,3.6-1.69,4.81-2.13,2.1-6.85-.59-8.88,6.12-.99,3.29-1.19,12.94-.74,16.4.1.8,1.66,6.1,2.18,8.83,1.37,7.23,5.67,14.84,1.93,22.14-7.9-.77-14.1-11.88-14.95-19.14-.41-3.49,1.31-7.68.78-9.68-.38-1.45-6.44-6.74-7.91-7.22-1.83-.6-4.05.77-6.37.5-2.53-.3-3.88-2.55-6.13-2.97-4.77-.88-8.34,1.13-12.4,3.04l1.95,6.91c-4.28,1.03-8.72.29-12.87-1.13l-.14-6.87-3.08.59-.92,5.42c-4.29,1.62-6.82-4.77-9.3-3.86-3.65,1.34-6.89,9.61-10.65,12.39-2.58,1.91-5.82,1.56-6.6,4.37,1.05,6.16-4.29,14.76-4.51,19.6-.17,3.72,2.25,6.86,2.83,10.22,1.15,6.54-.58,14.53,6.31,18.69,5.51,3.31,12.72,2.77,18.59.75,8.37-2.88,5.23-10.55,10.58-14.52,3.33-2.46,12.45-4.07,15.5-1.42.47.41,2.3,5.68,2.17,6.2-.3,1.23-2.86,1.18-3.01,2.2-.17,1.21,1.16,2.94.71,5.39-.6,3.21-3.76,4.86-4.41,7.67-1.05,4.49.47,8.9.79,13.3,4.44-1.14,7.56-2.94,12.48-1.98,2.73.53,5.81,5.08,9.49,5.01-1.05,6.19-6.65,21.63-3.03,26.56.63.86,2.51,1.06,3.12,2.09,1.21,2.02.06,4.73,2.62,6.12,6.54,3.57,8.21-1.97,11.01-2.64,5.2-1.24,13.3,6.95,17.29,9.83l.44-7.07,4.51-.99c-1.14-11.93,6.76-9.11,12.01-12.49,1.77-1.14,2.41-5.24,5.61-5.5,2.15-.17,3.32,1.85,5.01,2.07,4.64.61,4.01-2.77,9.95,2.01,3.77,3.04,4.76,2.92,7.87,5.08,1.69,1.18,1.59,3.41,4.1,3.9,1.81.35,9.16.32,10.99-.03,2.42-.46,3.94-3.28,8.11-3.89,3.8-.55,7.77-.17,11.41.92.73,1.99-1.84,3.68-1.57,5.04.08.4,3.77,6.68,4.06,6.96,1.77,1.75,4.37.46,5.38,1.11.78.5.54,3.81,1.4,4.63,1.53,1.45,5.11-.15,3.74,6.25l5.87.13,1.14,5.87c3.61,1.38,4.47-3.72,5.7-4.02s5.53-.23,6.69.17c1.27.44,1.29,2.3,1.85,2.62,1.08.63,3.04-.18,3.66.37.42.38-.39,2.26.74,2.9s4.16.27,5.12,1.22c1.53,1.53,4.98,8.86,6.39,11.1,2.35,3.71,5.72,4.76,5.96,10.12.31,7.06-5.84,10.49-8.09,16.52,4.67-4.91,13.35-12.51,16-1.99,6.45-2.63,14.52-3.61,20.03,1.44,2.68,2.46,3.47,7.42,8.2,6.4,1.39-.3,2.77-1.88,4.28-1.85,1.88.04,2.64,2.33,4.17,2.8,3.02.93,10.64-1.01,12.38,1.86.69,1.13.64,3.91,1.03,4.23.62.5,3.26-.33,4.89.6,1.1.63,2.42,4.27,4.47,5.54,2.26,1.4,5.14.93,7.03,3.02l.49,9.95h4.02s-.12,6.94-.12,6.94l-2.9.06c2.38,5.21-.2,4.26-.94,5.76-.58,1.19-.42,3.13-1.28,4.03-.79.84-3.07.65-3.59,1.41-.55.8.03,2.81-1.13,4.4-1.79,2.47-4.14,3.69-5.82,8.16-.58,1.55.16,4.09-.68,5.32s-3.54.66-4.6,1.4c-3.68,2.57,2.36,21.53-.92,26.84-.56.9-2.48.99-2.9,2.32-.87,2.76-.28,7.81-1.45,11.59-.98,3.19-3.67,5.62-4.31,7.78-.67,2.29,1.02,6.48-.89,9.03-1.5,2.01-5.66.36-7.9,1.12-1.29.44-1.14,2.37-2.37,2.83-3.18,1.19-8.2.67-12.25,2.51-4.38,1.99-5.06,5.78-7.6,7.42-1.27.82-3.78.81-4.2,1.29-2.35,2.62.13,16.8-2.19,21.06-.96,1.77-5.39,2.16-5.85,2.89-1.02,1.62,1.11,5.32.47,7.92-.51,2.06-2.39,1.97-3.03,2.99-2.66,4.24-.06,5.83-8.18,6.87-1.2,1.7.3,4.41.06,6.24-.33,2.55-8.71,11.91-11,12.81-7.14,2.82-8.94-2.36-15.47-2.97l.58,3.08,4.3,1.02.25,7.75,3.78,1.23c.42,4.09-1.48,8.35-5.19,10.15-1.44.7-4.09.48-4.59.96-.4.38.04,1.93-.36,2.5-1.11,1.59-13.88,2.28-16.76,3.33-1.17,1.36,5.76,17.17-5.44,15.96-4.07-.44-5.71-6.15-8.59-2.47.31,3.61,3.42,3.76,5.22,6.76,4.29,7.19.12,8.15-2.98,13.45-2.21,3.78-1.05,3.36-4.66,7.39-1.39,1.55.78,3.04-4.63,3.51l-.52,5.37c1.91,3.1,10.05.34,8.59,9.45-.53,3.28-3.82,2.69-4.59,5.45-1,3.59-.14,7.42-.47,11.05-12.54-.83-3.58,15.23-5.95,23.04,3.62-.51,6.8-1.84,10.31.2,1.73,1.01,1.97,2.84,3.19,3.8,2.36,1.87,6.61,3.45,7.49,6.52.97,3.41-5.57.03-6.99.9l-2.57,4.62-13.51-6.47.07-7.57-2.98,6.47c-1.64,2.54-4.25-4.22-5.5-5.48-2.16-2.18-10.97-7.67-12.26-9.24-1.07-1.3-.96-6.06-2.19-8.05-.74-1.19-3.98-2.47-5.5-4.75-3.99-5.97-3.36-13.54.4-19.36-8.61-4.72-1.18-11.56-.22-18.35.65-4.6.14-8.61-.91-13.06l-4.82-.19c.66-5.13,1.48-10.27.98-15.49-.58-6.14-4.46-13.91-4.06-19.99.28-4.2,3.76-7.13,5.13-10.96,1.54-4.31,2.79-13.73,1.96-18.1-.47-2.48-2.77-2.06-3.05-3.16-1.93-7.67,2.92-14.9,3.06-21.85.07-3.37-3.32-9.13,1.47-6.76l1.48-1.24c-.59-3.42-1.68-7.54-1.01-10.99.48-2.49,2.76-2.06,3.04-3.16.59-2.32-.48-6.14.04-8.75l-2.96-.61c-1.69-4,2.36-5.79,2.88-8.45,2.47-12.58-2.95-31.66-15.08-37.89-2.32-1.19-4.86-.9-7.42-2.58-2.24-1.47-3.2-4.3-4.99-6.01-2.4-2.29-6.55-2.87-7.34-6.76-1.14-5.65-2.8-10.52-5.6-16.3-3.85-7.94-8.78-15.36-12.29-23.71-.89-2.12-1.16-4.93-1.28-7.23l-5.36,1.09c-2.75-.51-3.3-19.4,5.37-17.09.19-4.15-5.95-6.65-5.93-10.49.01-2.79,3.72-6.67,4.69-9.25.59-1.57-.22-3.87.44-5.05.23-.42,6.42-3.63,7.67-5.78,1.08-1.85.98-5.18,1.18-5.36.42-.39,3.36.38,4.97-.53,5.29-2.99-.02-33.46-11.02-32.51,3.54,13.72-6.7,4.08-10.7,3.19-6.3-1.4-7.77,2.45-9.23-6.77-3.35-.68-7.57-.37-10.1-3.17-3.04-3.37-.67-5.23-1.45-7.22-.34-.86-2.12-1.94-2.74-3.32-1.13-2.54-3.01-8.75-4.84-10.15-.45-.34-9.61-4.8-10.16-4.93-4.29-1.05-6.21,1.86-11.19-2.72-1.7-1.56-3.45-5.82-5.03-6.97-.37-.27-8.03-3.4-8.48-3.49-2.08-.42-3.56,2.5-6.52,2.59-14.62.45-34.66-19.16-47.12-26.04l-.32-1.32c3.77-4.8-.98-9.99-.53-15.76l-4.53-.97c1.46-8.03-8.11-4.63-6.17-13.83l-4.77-1.23c1.82-7-9.42-14.33-10.89-19.61-.74-2.64.51-5.81-.7-8.3-.66-1.36-8.03-5.88-9.02-8.98-2.1-.43-1.63,1-1.49,2.49,1.09,11.7,10.09,16.77,14.57,25.44,1.17,2.26,1.26,4.75,2.24,6.76,3.03,6.17,7.6,12.06,7.2,19.31-5.22,2.25-13.07-5.89-14.46-10.04-1.17-3.49.28-6.72-2.06-9.94s-14-7.04-13.4-10.38c10.23-9.26-2.52-12.54-5.58-19.64-2.85-6.62.31-10.81-.38-17.35-6.84-.75-9.5-5.5-15.71-7.61l.17-7.1-5.59-.93c-1.46-3.21,2.41-8.22,1.88-10.29s-5.65-5.12-6.9-7.18c-1.98-3.25-2.55-10.26-1.92-13.98.44-2.59,2.67-4.23,2.8-5.22.18-1.28-1.93-2.23-1.72-4.56.35-3.83,3.92-8.77,4.63-11.5.65-2.51-.25-5.23.43-7.57.97-3.35,2.48-2.77,3.85-10.14s.49-3.44-.06-9.14c-.2-2.06,1.11-3.83,1.05-4.83-.02-.42-3-1.78-4.05-3.06-3.38-4.1-5.03-9.8,1.02-12.02-6.26-4.91-8.63-11.8-6-19.5h-6c2.1-5.26-3.35-5.45-3.78-7.61-.4-2,1.66-7.35,2.78-9.38l-6.87-2.14c.7-6.62-1.33-3.87-3.69-5.78s-1.2-6.23-1.45-9.09c-3.94,2.07-6.62.65-8.49-3l-2.04,3c-3.27-.52-5.08-2.79-5.51-5.98l-4.48.02c.3-7.55-7.15-1.49-7.04-9.16-5.63-2.39-11.08,1.92-16.84-.76l-.61-5.09c-4.04.33-4.48-.47-5.49-4.06-7.39-.23-4.39,5.85-5.63,7.89-.13.21-3.14,1.1-4.36,2.14-5.52,4.71-11.05,15.12-18.49,6.5-.48-2.21,2.81-2.24,2.99-2.51.72-1.12-2.57-3.24-1.28-4.66l12.29-7.83c.43-1.73-.68-1.64-1.97-2.01-9.09-2.61-9.61,7.77-14.53,12.51-1.66,1.6-6.21,3.35-7.05,5.01-.79,1.57,1.23,4.22.48,6.37-.59,1.72-3.11.92-2.92,2.61,7.33-1.13,7.02,3.53,4.19,8.71-4.76,8.7-16.61-.11-5.2-7.2.16-.76-.96-.64-1.47-.48-5.71,1.74-19.57,15.21-26.6,19.41-7.94,4.74-18.02,9.59-27.48,8.63-4.03-.41-7.79-2.96-3.72-6.11,3.22-2.5,16.65-6.63,21.64-9.08,7.94-3.91,22.01-9.29,19.64-19.85-2.22-.74-3.94,2.02-5.49,2-1.45-.02-2.48-1.9-3.99-1.97-1.94-.1-4.25,2.33-6.19,2.81l-2.39-1.26c-3.01-4.09,1.88-8.37,2.06-12.58-6.24,6.52-19.08-4.65-7.99-7.5-13.12-9.33.68-8.87,1.84-10.67,1.5-2.32-1.19-7.4,6.15-9.43,3.35-.93,4.43,1.13,7,2.59l1.65-4.93,7.36.93,3-10c-3.35.29-4.24,4-7.71,4.78-6.9,1.56-17.2.38-14.71-8.79l-4.51-2.08c-.53-8.21,6.29-4.76,10.33-5.85.98-.26.14-4.6,5.21-5.06s4.04,3.29,6.04,3.89c2.55.76,12.62-3.12,16.35-1.91-4.24-4.73-27.48-5.62-24.6-16.01,2.01-7.25,13.31-2.06,18.82-5.01,2.61-1.4,3.25-8.23,4.95-10.8l12.21-.3,3.25-5.75c3.3-1.17,7.12,1.07,9.67.69,3.03-.46,5.7-5.83,10.71-3.82l.43,5.07c5.72,3.61,7.67-1.85,11.95-4.01l5.28,8c4.86.74,12.05-3.55,16.32-1.54,1.51.71,2.03,3.17,4.56,3.52,4.09.56,9.89-3.17,15.93-2,3.06.59,3.77,3.9,6.25,4.74,3.28,1.11,8.52,1.26,12.48,2.52,6.43,2.05,12.25,5.87,18.77,7.72.03-2.19-.21-4.9,1.3-6.72.49-.59,11.01-8.26,12.38-9.11,4.1-2.54,9.9-3.34,8.89,2.88l-6.55,3.46c7.43,3.87,10.72-7.63,12.98-9.02,5.53-3.4,4.88,5.85,7.78,7.5,5.22,2.97,5.18-3.19,7.75-2.79,2.78.44,1.5,6.92,5.3,4.57.37-.23.45-2.15,1.82-2.63,5.68-2.01,14.36,5.66,20.11,6.63,7.44,1.25,17.13-2.26,21.98,5.72l-2.72,5.5c4.55.41,6.78-4.69,11.44-4.02s5.18,8.7,12.04,9.06c3.09.17.59-2.56.81-4.4.32-2.65,4.52-8.16,7.37-8.43,3.78-.35,5.2,4.43,7.09,5.82,3.64,2.68,18.19,3.5,22.51,1.73,2.69-1.1,2.69-3.96,4.79-5.21,8.75-5.18,9.78,4.63,10.44,4.44,6.29-3.51,13.2-6.2,7.4-14.37-2.04-2.87-7.78-2.7-6.85-7.57,8.08-1.55,7.97-14.82,18.54-10.12,8.2,3.65,1.7,11.03,3.59,16.41.65,1.85,3.5,1.98,4.34,3.66.68,1.35.58,8.74,3.36,4.36.77-1.21,1.29-3.86,2.73-4.3,7.06-2.15,2.64,16.94,5.91,16.92,2.9-1.64,2.19-5.13,3.6-7.38,1.27-2.03,4.92-2.82,6.15-5.85,1.64-4.06-.91-7.85,5.34-8.7,7.02-.96,11.72,2.84,13.39,9.49-.04,2.94-4.36,3.3-4.9,5.12-.7,2.34,4.21,6.54.99,11.91-2.05,3.42-16.64,9.46-16.19,1.58ZM304.65,362.57c.58-5.75-.64-11.04-5.98-14-.64,2.29,2.68,4.24,2.85,5.68.16,1.34-1.9,2.15-1.42,3.31.32.77,3.5,4.26,4.55,5.01Z"/>
      <path class="cls-1" d="M770.52,54.44l-15.38,4.12c-.14,3.14,4.46,1.98,6.57,1.55,11.01-2.22,13.78-6.82,27.49-5.59,3.3.3,14.29,3.34,9.02,7.11-4.66,1.39-43.45,5.35-43.54,8.43,7.85,4.93,16.75-5.32,25.04-4.06,6.66,1.01,2.64,5.33,3.46,9.57,5.58-.31,10.36-8.66,15.83-6.89,6.72,2.17-8.56,12.73-6.34,14.87,6.14.3,8.92-5.67,13.3-8.19,5.73-3.3,21.43-6.23,27.91-5.57,2.67.27,9.14,2.06,8.33,5.86-1.46,6.85-27.99,11.8-34.55,12.91-3.03,2.46,9.28,2.13,7.99,5.46-4.83,6.84-16.07,6.82-16.06,16.89,3.33,3.15,7.36.14,11.49.68,6.38.82,4.48,5.97,4.55,10.92-5.59-.3-8.58,2.86-8.05,8.56.35,3.73,8.59,1.41,8.79,6.12.24,5.48-6.87,13.6-12.7,10.38l2,4.47c-3.52,3.05-8.88.12-9.01,6.52-1.86,1.35-8.01-5.74-10.54-2.05-4.34,6.32,5.12,5.9,7.85,7.27,5.15,2.58,9.09,16.24.23,15.86-6.69-.29-10.58-8.52-14-8.67s-7.53,3.95-6.52,7.6c5.23,2.1,18.18-1.6,19.56,4.92.77,3.64-19.45,19.56-23.52,20.61-7.79,2.01-11.82-2.56-17.54-2.56-8.04,0-6.43,9.95-9.27,14.76-4.1,6.97-25.61,4.79-33,8.5-1.8,4.03.53,7.46-.66,11.89-.34,1.28-5.91,6.65-7.3,9.66-3.04,6.59-2.99,19.37-10.52,22.47-9.83,4.05-8.86-5.84-10.9-7.08-2.97-1.8-7.57,2.09-12.68-5.82-3.04-4.71-14.46-37.37-15.09-42.93-.4-3.5.29-9.37,2.97-11.87,4.95-4.62,15.29-1.86,10.02-15.1-10.89.16-16.85-7.96-2.06-7.44l-2.52-7c-3.12,1.5-4.36,3.99-8.48,3.01-.13-13.22-4.51-44.19-21.65-44.95-5.34-.24-12.33,2.69-16.94,2.85-6.51.24-20.21-4.43-21.41-11.9,4.28-2.18,10.52.02,14.34-1.17s-.55-5.73-3.83-5.93c-4.16-.26-14.21,5.68-17.04,1.11-4.18-6.75,9.82-7.09,12.81-8.99,2.38-1.51,4.99-5.75,8.83-7.43s7.98-1.24,11.76-2.74l.27-11.72,14.86-2.65c3.78-2.97,6.19-10.62,10.99-12.09,2.14-.66,3.73.39,5.15.08,1.58-.34,3.13-2.49,4.84-3.04,5.83-1.88,9.99,3.78,15.03,5.56l-.99-5.99,8.89,1.1,1.03,7.22c2.01,2.23,4.6,1.48,7.06.63-3.66-13.32,4.25-9.3,13.36-8.8l2.58,4.23,3.07.61,1.01-14c5.75-2.15,10.99,5.48,15.47,5.03,3.28-.33,5.3-5.63,7.49-7.58,6.36-5.66,28.78-9.34,36.77-6.67,3.67,1.22,5.13,3.07,4.14,7.09Z"/>
      <path class="cls-1" d="M1645.46,772.76c.91,1.43.38,7.62,1.7,9.79,1.09,1.78,5.07,1.47,6.99,4.01s1.09,5.88,2.26,8.74,6.27,6.55,7.05,9.97c1.08,4.75-2.62,22.68-3.19,29.16-.21,2.41.82,4.87.36,7.57-.85,4.96-9.42,8.8-12,13.02-1.67,2.73-1.41,6.2-3.96,9.04-1.78,1.98-5.64,3.04-6.91,5.09-3.36,5.47,1.47,9.32-7.72,14.28-15.13,8.16-25.87,9.68-41.59,1.84-8.47-4.22-8.84-5.8-5.93-15.02l-3.88-5.69-1.89.12-.71,1.94-5.38-1.07,5.99-11.99c-4.54,5.47-6.72,11.66-14.98,12,.13-6.1-1.88-14.78-8.31-17.28-2.54-.99-4.29.77-6.07.21-1.32-.41-1.23-2.66-2.32-2.95-8.61-2.23-10.33,3.74-15.01,4.81-7.02,1.6-12.62-2.44-18.81,4.19-3.64,3.9-2.01,6-8.43,7.57-7.38,1.8-14,.54-21.38-.45l-5.3,6.72c-8.38-1.53-19.96-8.03-12.27-17.23,2.1-2.52,5.44-.71,4.99-7.1-.27-3.81-3.22-3.95-3.89-6.19-.9-2.99.27-7.14-.42-10.58-.63-3.09-10-20-4.25-21.72,2.59-.77,4.88,3.57,5.46,2.99.13-2.89-3.19-3.91-4.41-6.08-2.71-4.83-1.72-11.64-.48-16.81,11.35,2.72,11.45-5.9,18.84-9.67,5.41-2.76,11.96-2.47,17.61-4.39,9.95-3.39,15.1-10.32,13.46-21.04,3.62-1.04,3.56,2.81,5.99,4-1.62-7.76,6.64-7.7,10.01-12.49,1.55-2.21,1.99-6.2,2.6-6.62.97-.67,7.37-2.08,8.68-1.74,2.62.69,5.26,6.25,5.78,8.83,7.97-.55,5.04-4.59,6.61-9.82,2.27-7.56,8.47-5.03,14.34-6.17-.35-3.28-9.59-6.84-3.77-9.34,5.58-2.39,11.4,5.1,17.51,6.11,3.71.62,7.46-.04,11.17.33,2.99,7.34-3.19,6.96-4.95,9.62-.62.94-3.41,8.73-2.93,9.25,3.72-.28,4.93,3.19,7.62,4.89,1.7,1.08,4,1.21,5.71,2.29,3.91,2.46,4.29,6.6,10.15,5.96,1.94-.21,6.23-8.57,6.48-10.7.32-2.81-1-5.16-1.03-7.86-.11-9.6.73-14.32,6.21-22.36,3.63-1.04,6.62,1.82,6.92,5.31.53,6.11-4.99,6.32.47,14.44,3.1,4.61,6.52,5.77,8.72,12.29,2.31,6.84.47,16.27,2.46,20.54,1.7,3.65,9.1,3.93,10.06,5.44Z"/>
      <path class="cls-1" d="M538.67,166.56c2.05-.79,1.95-4.28,3.53-5.95,3.16-3.34,16.2-5.41,20.41-2.5,3.18,2.19,3.23,8.69,5.33,11.18,4.73,5.62,21.38,5.82,26.72,13.77,5.78,8.6-3.03,9.4-3.02,12.99,1.74,11.44,21,9.26,24.5,15.52,2.8,5.02-1.68,6.53-2.92,9.06-1.45,2.96-1.77,8.6-5.45,9.44-6.65,1.51-10.61-15.31-16.2-14.07-4.12.92-4.79,7.2-2.77,10.42,13.95-2.72,12.34,12.85,8.9,21.7-4.82,3.28-11.33-8.32-13.04-6.56.02,3.38,9.14,10.73,5.05,13.54-1.49,1.02-4.35.59-6.02-.09-1.57-.65-11.53-7.9-13.51-9.48-2.43-1.94-8.27-9.24-10.25-9.81-4.09-1.18-7.82,2.51-11.77,2.89-11.02,1.05-12.58-10.59-3.92-14.05,2.75-1.1,7.64-.5,10.67-1.25,7.95-1.95,15.33-11.32,11.98-19.5-3.66-8.95-11.26-2.62-14.15-4.35-.47-6.1,1.69-9.26-4.61-13.91s-6.8,4.91-12.98,3.82c-4.48-.79-5.98-5.14-9.21-5.64s-23.03,8.43-19.18-2.58c.56-1.6,3.16-1.4,2.89-2.1-1.64-2.2-6.09-1.28-7.48-3.51-2.32-3.73-.72-12.96,1.09-16.89,3.28-7.12,18.35-14.29,16.2-3.84-.58,2.8-7.4,10.46-.3,9.79,3.58-.34,2.04-4.54,2.97-7.08,3.49-9.55,12.85-12.18,20.4-5.3,1.55,4.64-4.83,9.38-3.86,14.33Z"/>
      <path class="cls-1" d="M637.42,68.36c-2.18,4.97-21.63,3.74-26.75,6.22,11.38,8.36-8.72,22.65-16.5,22.06-4.24-.32-6.86-4.11-12.06-1.12-3.09,1.77-4.08,6.45-6.01,8.99-4.88,6.41-11.67,8.97-19.43,10.08l6.01,6.44c-4.26,12.63-21.38,12.16-32.45,11.41-7.83-.52-21.5-2.81-18.61-13.42,2.92-1.98,5.84,2.19,8.02,1.11,1.38-.69,3.84-4.16,5.56-5.53,1.95-1.55,10.37-6.98,11.03-8.03,1.23-1.93-6.87-10.2-2.52-14.97l14.96,4.96-3.99-2.01c-.09-10.5,20.9-1.83,18.5-12.97-3.22,3.25-7.62,2.44-11.33,3.67-9.09,3.02-8.38,6.33-19.4,2.04-5.73-2.23-12.84-8.91-10.82-15.26,2.07-1.36,6.81.25,9.38-.62,2.87-.98,2.83-8.37,11.96-5.63,2.93.88,3.29,5.57,7.96,4.64,5.13-1.02,5.83-7.26,7.96-8.19,5.01-2.18,10.13,1.06,15.14,1.42l1.66-4.08c4.92-1.19,5.19,6.47,9.44,6.05,3.15-.3,3.78-4.8,5.97-6.13,5.2-3.14,21.57.71,28.18.97,3.63.15,7.06-1.74,11.68-.68,2.79.64,7.65,5.87,6.47,8.58Z"/>
      <path class="cls-1" d="M1501.52,618.71c5.79,11.82-11.3,9.51-7.66,21.18.83,2.67,7.38,3.62,5.87,10.02-.32,1.35-5.32,1.96-5.88,2.85-.49.78-.23,3.67-.95,5.55-1.15,2.99-4.04,4.73-4.72,6.28-1.41,3.23-2.11,14.03-7.02,14.99-7.32,1.44-5.73-3.26-9.98-6.79-2.27-.34-2.67,5.67-9.8,3.56-1.37-.4-8.46-5.88-8.72-7.27-.94-5.07,2.46-5.02-4.57-6.43.83-6.98-5.3-6.64-4.4-13.48.98-7.41,8.44-3.71,13.84-4.73l2.24-7.77c8.09,1.7,5.86-1.29,10-5.5,1.76-1.78,7.13-4.21,7.65-4.85.76-.94.66-3.6,1.44-5.06,1.14-2.12,2.85-2.1,3.5-2.99,2.07-2.8-.88-6.08,5.32-4.24,4.5,1.34,8.17,5.76,13.83,4.67Z"/>
      <path class="cls-1" d="M1632.66,671.56l.43,8.07c5.77.74,4.38,2.83,6.56,5.44,1.46,1.75,5.95,5.15,6.55,6.53,1.2,2.74-2.25,5.53.99,9.94,2.71,3.7,15.83,4.8,13.39,12.39-1.13,3.53-14.21,1.19-17.29-.5-6.37-3.5-7.55-14.3-15.26-14.83-6.06-.41-5.88,8.77-11.9,9.94-7.97,1.55-8.62-3.56-10.18-3.99-3.49-.96-11.67,1.83-13.16.88-5.06-9.24,10.95-6.24,2.73-17.23-1.23-1.65-11.4-7.81-13.51-8.59-4.43-1.63-9.46,3-8.31-6.02,3.12-.37,7.47-.86,10.24-2.26,4.38-2.2,7.49-9.79,13.25-9.66,2.91.07,18.55,9.26,24.42,10.46,4.31.88,6.95-.64,11.05-.57Z"/>
      <path class="cls-1" d="M389.66,162.57c2.69-.82,12.87-5.41,14.38-4.95l3.61,6.94c1.41-5.77,2.66-8.35,7.56-3.04,2.04,2.21,2.47,5.81,5.44,7.05,1.28-3.4-1.36-7.69.92-10.6,1.85-2.36,7.17-1.2,10.09-1.4-.77-.83-1.38-.9-2.06-1.63l1.73-4.41c2.62-.06,9.72-.69,10.27,2.66.71,4.27-7.78,3.23-9.94,3.38,6.34,6.87.65,5.15.2,9.65-.15,1.5,4.56,9.98,5.86,10.79,2.28,1.44,7.32.69,7.96,5.05.51,2.96-5.24.97-7.01,1.52-2.28,2.18,10.16,11.08-4.62,12.88-12.18,1.48-27.23-.41-39.82,1.05-3.82-.36-6.81-3.93-9.65-5.35-2.42-1.2-15.58-3.59-8.33-8.52,2.45-1.66,9.7-1.62,12.91-2.1,1.36-.2,3.03-.38,1.51-1.96-6.19-2.7-11.76,1.35-17.88-1.12l.77-7.32,11.07-.63c-.77-4.84,2.79-4.97,5.04-7.95-5,1.52-11.44,2.52-16,4.5-11.3,4.9-18.26,19.55-30.64,5.15-6.15-7.16,1-7.77,4.5-12.29s3.84-12.27,8.61-15.42c3.48-2.29,3.19,2.3,6.51,2.05,3.48-8.78,5.83-1.85,8.7-.18,2.35,1.36,5.76.82,8.32,1.68,6.77,2.28,16.42,6,10,14.5Z"/>
      <path class="cls-1" d="M1145.8,747.69c-.31,2.34.07,4.65-.56,6.99-.51,1.89-2.38,1.76-2.56,2.58-.62,2.85.64,6.61-.23,9.6-.8,2.74-5.6,4.49-5.82,5.42-.76,3.09,1.66,7.08,1.01,10.72-.59,3.3-4.83,11.58-4.96,12.25-.38,1.87.59,4.65-.23,6.11-.73,1.3-13.65,7.57-16.09,7.25-1.82-3.7-3.24-2.37-6.63-3.11l1.93-12.93-4.85-.15c-4.67-9.23,7.46-11.69,8.9-20.4.02-2.18-2.65-1.97-3.38-3.69-.86-2.01-1.19-11.22-.51-13.15.43-1.23,2.18-1.27,2.56-1.89.59-.96.14-2.6.8-3.68.74-1.21,4.36-2.58,5.19-5.07l4.23.11.56,2.9c3.04-2.49,4.86-4.96,5.65-8.87l3.86-.12c-1.83-4.37,2.83-5.9,3.03-6.69.46-1.87-.55-4.62.11-6.67,9.87-6.14,6.56,4.65,7.36,6.43.61,1.37,3.72,1.8,4.34,3.59.94,2.72,1.41,13.57-3.7,12.46Z"/>
      <path class="cls-1" d="M874.66,278.56l.09,5.91c1.06,1.86,13.15-3.63,7.76,7.96l-3.85.63,7.52,4.49-.53,7.01,2.89.06c-1.56,5.1,3.33,5.76,3.96,7.59.75,2.2-.34,4.95.29,7.21l6.98,1.72c1.69,5.58,2.3,10.64-5.12,9.42-.81,3.3,5.22,2.18,2.02,5.52-4.3-.76-8.03,3.85-10.76,4.32-2.49.43-4.85-1.18-7.67-.85-4.09.49-8.26,6.62-13.58,4.99-1.73-1.64,5.98-13.37,9.99-12.01l-6.99-2.5c-.45-2.14,2.83-1.94,3.07-3.17.42-2.18-2-6.51-1.08-9.32,3.68.37,6.69-.53,8.99-3.5-3.23-5.6-8.7-3.62-12.99-7.02l1.86-2.98c-1.59-2.79-5.27-1.66-5.72-5.16-.06-2.78,5.9-2.09,2.82-7.52-1.94-3.43-5.73-1.4-6.99-2.22-2.56-1.68-.79-9.81,3.5-8.58,3.77,1.07-1.21,6.78,2.01,5.97,3.84-.96,3.2-10.35,11.52-7.98Z"/>
      <path class="cls-1" d="M1144.43,180.33c-1.77,1.64-12.62,1.75-15.06,1.03-4.38-1.28-3.83-6.88-5.22-8.79-1.02-1.4-4.74-1.12-5.35-3.69-.12-.51,1-9.4,1.3-10.37,1.2-3.9,6.9-3.63,4.56-10.94l3.98.99,1.92-9.59c1.87-2.34,5.48-.77,8.08-1.91,1.9-.84,2.65-3.98,3.21-4.29,1.31-.73,4.14.15,6.1-.41s3.28-3.97,5.4-4.6c4.32-1.28,9.93.58,15.53-1.47,5.82-2.13,5.65-7.03,14.2-5.68,2.91.46,7.53,3.27,4.56,6.45-2.02,2.16-21.15,7.18-26.69,10.31-3.42,1.93-20.57,14.21-22.36,16.64-1.42,1.93-3.38,11.58-2.95,14.01.98,5.46,12.3,5.62,8.77,12.3Z"/>
      <path class="cls-1" d="M994.36,108.85c2.64,3.2.63,8.42-3.21,8.73-1.52.12-3.15-1.02-4.88-.92-2.62.14-5.62,1.64-8.61.91l.54-6.98c-2.47-5.15-9.06,1.28-10.09,4.94-.89,3.2.68,8.85-3.17,9.91-4.77,1.3-6.38-4.96-8.73-7.92-2.26-2.84-5.38-1.37-4.53-7.37.22-1.52,2.88-5.69,1.97-6.57-2-1.94-4.15,2.73-5.07,3.42-1.87,1.4-8.19,1.44-9.75.41-.52-.34-3.18-11.52-3.02-12.13,1.18-4.62,10.93-8.09,9.86.29,2.62-.17,3.26-2.49,6.43-2.04,2.56.36,2.97,3.3,5.56,3.04-.58-4.2,1.01-7.56,5.47-8.06,10.57-1.18,6.87,7.33,12.17,11.93,4.43,3.84,15.75,4.42,19.06,8.42Z"/>
      <path class="cls-1" d="M1588.52,400.71c1.54,2.45.67,5.65,1.4,8.1.94,3.18,6.98,8.23,5.31,10.79-.8,1.23-3.36,1.29-4.33,2.21-2.35,2.23,6.38,21.07-6.12,20.88.78,5.17-4.21,6.74-4.12.88l-9.33,3.07-2.64-4.06c-.21,2.08.9,8.25-1.54,8.99-3.38,1.02-3.4-3.22-5.46-3.98-.36,3.05-1.91,5.83-5.37,5.05-.85-.19-1.16-2.54-2.66-3.52-2.54-1.66-8.65-.82-6.49-5.53.64-1.4,10.04-7.98,11.55-8.5,2.31-.8,5.98,1.77,6.97,1.05l2.07-9.47c3.82-.12,7.08,2.06,10.77-.23-1.07-4.82,1.49-9.65,1.83-13.48.58-6.52-4.14-14.15,8.17-12.23Z"/>
      <path class="cls-1" d="M793.68,218.56h1.47c4.34-8.41,7.9-1.09,14-.91,8.17.24,18.84-10.23,20.06,4.86.41,5.16-2.33,12.99-8.09,14.01-2.16.38-4.83-.45-6.8.2-1.7.56-3.75,6.04-6.34,6.73l-2.32-.35c-4.99-8.54-9.97-5.59-17.99-4.54.63-4.2,4.84-7.54,2.99-11.99l-8.98,3c-4.48-7.73,7.39-23.62,12.01-11.01Z"/>
      <path class="cls-1" d="M546.41,135.83c1.96,1.84,3.88,10.51.61,11.61-4.53,1.52-6.59-1.83-9.8-2.92-12.36-4.21-21.41,8.52-35.58-2.42-1.91-1.48-9.27-8.75-10.43-10.57-6.95-10.95,13.13-15.82,17.53-9.54,2.94,4.19-2.34,7.66,6.95,11.05,7.4,2.7,27.82.07,30.72,2.79Z"/>
      <path class="cls-1" d="M1529.57,642.67l1.91,6.27c-.28,1.48-4.35,3.78-5.79,4.16s-9.71.38-11.39.16c-1.41-.18-5.44-2.95-5.62-2.7l2,11c.38.41,8.08-7.12,9.87-2.34,1.98,6.1-6.15,8.73-5.93,10.76.63,3.9,4.88,6.73,6.12,10.01,1.67,4.39,1.74,10.42-4.44,8.48-1.17-.37-1.35-2.17-2.36-2.94-4.3-3.31-5.32-1-3.28-8.96-5.74.04.03,16.8-9.42,9.92-2.92-2.13-.73-5.12-1.72-6.78-.38-.63-3.95-.53-4.69-2.81-.46-1.41-.45-6.27-.14-7.82.67-3.3,3.3-2.83,4.43-4.57.29-.45,4.18-9.17,4.32-9.68.76-2.95-1.02-7.88,2.94-9.07,5.37-1.6,12.77,3.99,16.88.88,1.84-1.39,1.8-5.52,6.33-3.97Z"/>
      <path class="cls-1" d="M1747.38,902.84c5.89,5.28-5.21,11.34-7.14,14.81-1.19,2.14-1.23,5.91-2.04,6.96-1.01,1.31-4.35.94-6.26,1.74-7.45,3.12-5.42,6.23-8.22,11.78-3.74,7.4-11.55,12.5-17.35,4.19-12.39-17.74,11.76-17.12,18.82-23.72,2.17-2.03,2.43-5.41,3.75-6.75,1.48-1.5,6.42-1.93,7.27-3.22,1.12-1.7-.81-10.71,5.74-8.91.3.08,5.19,2.92,5.43,3.13Z"/>
      <path class="cls-1" d="M521.31,85.91c5,5.37,5.14,11.75,2.57,18.37-2.19,5.63-5.51,7.01-11.37,6.7-7.68-.41-14.6-3.69-11.85-12.41l-5.89-.12c-3.31-8.3.26-8.11,3.34-12.95,1.93-3.04,2.77-7.02,6.27-8.81,2.79-.7,14.82,6.93,16.94,9.21Z"/>
      <path class="cls-1" d="M429.83,130.39c.65.75,8.98,1.64,11.85,4.65,1.83,1.91,4.99,9.73,1.51,10.34-3.42-.38-6.91-3.58-10.11-3.75-4.57-.23-12.43,4.33-17.39,5.47-9.58,2.19-23.86,2.8-17.8-11.3,3.31-2.32,6.63.82,9.57.11,4.32-1.03,5.53-6.99,11.2-5.35l.11-5.9,8.91-.62c2.19,1.31,1.49,5.57,2.16,6.34Z"/>
      <path class="cls-1" d="M628.52,339.71l.57,6.93,9.61,2.59c1.51,4.36.85,7.98-.05,12.33l2.92.05c.83,9.75-5.86,14-10.43,3.96-3.12-.6,1.36,4.31-2.01,5-5.46,1.11-3.87-8.49-5.95-8.85-2.89,1.39-13.2,3.67-14.41.18-.47-1.36,1.52-10.09,2.42-11.28,1.02-1.36,3.84-1.98,5.51-3.49,4.04-3.66,4.36-11.52,11.81-7.4Z"/>
      <path class="cls-1" d="M1759.66,874.57h6.01s0,7.99,0,7.99l8.06-.56c6.63,14.29-9.4,13.45-12.96,19.17-1.76,2.84-.72,5.21-1.11,7.92-.45,3.17-5.16.98-6.48-.55-2.66-3.12-3.27-14.18-2.08-18.03,1.02-3.32,6.5-5.64,6.48-9.44-.01-3.23-11.08-17.3-4.31-19.45,6.25-1.98,7.39,8.9,6.37,12.95Z"/>
      <path class="cls-1" d="M1474.66,692.57l-1,4.98,4.89,1.12.12,5.89c-8.33-1.25-16.73,2.82-24.84-.15l-.17-3.86c-5.04,2.51-8.18-.24-12.57-.92-4.13-.64-11.21,1.54-11.53-4.57-.3-5.76,6.74-8.44,11.65-8.53,3.84-.07,9.1,2.73,13.21,3.77,2.1.53,4.46-.04,6.54.46s3.27,2.49,5.28,2.8c2.89.45,5.55-1.3,8.42-1Z"/>
      <path class="cls-1" d="M865.45,313.37c-.33.53-2.38.61-2.67,1.75-.32,1.26,1.76,4.86,1.73,6.96-.11,9.06-5.96,5.52-11.85,7.98-2.59,1.08-7.68,6.94-10.44,2.54-.22-.35-.73-7.74-.59-8.33.32-1.35,3.92-1.19,3.04-3.7l-2.76-.17c-2.19-7.77,1.04-10.61,8.75-8.84l2.01-6.56c4.05.81,9.25-2.03,11.9,2.17.9,1.43,1.78,4.8.89,6.21Z"/>
      <path class="cls-1" d="M503.8,544.43c2.62-10.43-13.45-17.69-21.74-17.75-4.17-.03-7.45,2.18-10.95,2.84-1.37.26-2.98.56-2.43-1.43,1.74-3.68,6.53-7.08,10.61-7.48,2.4-.23,13.52,1.91,16.1,2.73,2.36.75,20.84,9.63,22.96,11.04,13.58,8.99-6.76,14.03-14.56,10.05Z"/>
      <path class="cls-1" d="M469.67,149.58c-.77,2.73-2.25,6.74-2.09,9.5.18,3.2,3.29,4.63,3.07,7.91-.46,6.86-10.75,11.71-15.44,6.54-1.05-1.16-1.2-3.12-2.59-4.42-1.73-1.61-6.38-2.3-7.49-4.54-1.27-1.71.36-6.51,2.14-6.92l7.39,4.92c1.12-3.97-2.89-10.34.44-13.08,3.77-3.1,10.49-1.48,14.58.09Z"/>
      <path class="cls-1" d="M1587.92,377.31c2.72,2.96,12.2,1.57,13.55,5.94,2.58,8.42-6.69,7.43-6.82,15.31h-1.48c-6.4-10.33-11.26,2.15-17.42-4.67-1.28-3.99,5.36-7.66,5.89-11.92.56-4.5-3.26-9.61-1.49-13.39,3.62-7.72,6.85,7.73,7.76,8.72Z"/>
      <path class="cls-1" d="M1501.47,567.77c-1.33-.75-3.94.3-4.72-.3-.38-2.62-1.75-5.54-.93-8.21.67-2.17,3.43-2.12,4.18-3.92,2.25-5.42-.23-15.08,9.99-13.64,2.4.79,4.48,10.12,4.61,12.53.12,2.27-.98,4-.94,5.85.05,2.73,1.93,5.88.88,8.87-.68,1.93-7.4,2.96-9.32,2.65-3.22-.51-2.98-3.39-3.74-3.82Z"/>
      <path class="cls-1" d="M1493.95,131.27c1.61,1.32,3.75,1.35,5.71,1.31l.93-4.57c7.77-3.17,7.82,4.09,10.56,6.57,1.38,1.25,10.69,2.45,2.89,6.86-5.72,3.23-8.43-1.03-11.93-.84-3.07.17-2.64,4.45-11.27,2.27-16.22-4.09-8.35-21.66.82-14.78,1.25.94,1.58,2.6,2.28,3.17Z"/>
      <path class="cls-1" d="M1518.68,607.57c-.79,4.22-4.37,5.43-8,6-.17-3.15.99-6.32,2.44-9.05,2.09-3.95,4.44-7.24,8.47-3.79l-.42,3.84c14.65-19.66,24.68,7.29,12.07,16.08-5.3,3.69-10.34-10.72-14.55-13.07Z"/>
      <path class="cls-1" d="M981.45,83.82c3.73-.05,7.77,2.55,11.75,2.77,5.25.28,20.69-4.86,12.98,5-8.43,10.77-35.38,13.08-31.08-6.09.53-.74,5.21-1.66,6.35-1.68Z"/>
      <path class="cls-1" d="M399.52,115.71c1.83,3.66,1.41,8.03-.83,11.44-1.72,1.2-4.77-1.56-8.01-.08s-4.71,8.13-9.74,9.28c-4.23.97-9.79.05-13.38-2.46-3.38-10.19,7.33-9.11,14.07-11.84,3.87-1.57,14.34-8.57,17.88-6.34Z"/>
      <path class="cls-1" d="M453.46,124.78c.72.42,2.13,4.99,3.7,5.77,4.36-6.18,16.51-8.56,16.58,1.51.06,9.39-8.53,11.72-16.52,10.44-4.8-.77-14.89-14.31-9.57-17.44,1.2-.71,4.66-.95,5.81-.28Z"/>
      <path class="cls-1" d="M1574.52,312.71c-2.7,8.97,8.62,14.31,10.12,19.38,1.1,3.7-4.64-1.28-3.97,1.96,1.9,5.71,7.83,10.09,6.92,16.47-2.07,1.45-12.69-1.11-13.01-2.59,2.43-6.38-.65-6.88-1.91-10.87-1.08-3.44-6.48-24.82-5.01-26.48l6.86,2.13Z"/>
      <path class="cls-1" d="M546.93,545.28c.99,1.25,6.17,1.86,6.64,3.89-1.2,7.47-7.27,3.4-11.53,3.5-5.7.13-22.94,4.4-23.2-3.81-.12-3.85,8.13-1.83,10.81-2.3-4.18-5.73,1.04-10.5,7.84-8.34.68.22,7.81,3.59,8.17,3.86,1.03.75.69,2.49,1.26,3.2Z"/>
      <path class="cls-1" d="M501.66,150.58c-1.3,4.56-8.38,11.51-12.74,12.76-1.51.43-4.93,0-5.22.28-1.15,1.12.87,9.24-9.05,4.94,1.75-5.44.15-13.44,5.05-17.44,5.9-4.8,15.27-2.16,21.95-.53Z"/>
      <path class="cls-1" d="M1620.58,904.65c.31,1.57.75,3.09.41,4.71-.17.83-5.06,11.53-5.56,11.97-1.72,1.5-11.27,1.91-13.35.33-4.42-5.81-2-12.06.72-17.97l17.79.97Z"/>
      <path class="cls-1" d="M1295.41,75.82c2.1,2.02,4.46,8.93,2.76,11.76-.54.9-13.31,6.12-14.99,6.05-4.34-.18-13.21-8.17-9.1-11.14,1.64-1.19,5.09-1.14,7.64-2.37,3.91-1.88,8.35-9.45,13.69-4.31Z"/>
      <path class="cls-1" d="M456.53,111.7c-1.75-1.15-8.39,1.36-10.43-5.08-3.39-10.68,13.37-7.91,18.51-4.5,3.65,2.43,10.57,12.69,3.1,15-11.83,3.65-9.58-4.37-11.18-5.42Z"/>
      <path class="cls-1" d="M521.58,237.49c-8.74,0-9.66,7.53-16.24,9.85-3.85-.47-7.02-8.7-6.67-12.18,1.15-11.4,24.38-9.82,22.91,2.33Z"/>
      <path class="cls-1" d="M1310.79,97.49l2.75.14-.32,4.99c-6.51,2.67-16.4-.19-22.31-3.78-.76-.46-1.63-.18-1.33-1.76l1.03-3.07c6.56,1.03,6.32-6.36,11.51-6.51,5.93-.17,9.18,4.44,8.67,9.99Z"/>
      <path class="cls-1" d="M1325.45,94.82c.4.24.6,1.86,1.86,2.56,3.76,2.08,12.06-.21,7.83,9.17-2.74,6.09-18.48,6.31-19.51.49-.73-4.15,5.79-14.64,9.82-12.22Z"/>
      <path class="cls-1" d="M1298.32,598.67c8.41-2.68,15.73,22.4,2.72,22.88-8.16.3-7.25-21.44-2.72-22.88Z"/>
      <path class="cls-1" d="M618.94,978.27c2.25,1.38,8.45,1.75,4.72,5.8-.95,1.03-7.03,3.33-8.62,3.47-1.94.17-5.96-1.07-6.23-.87-.57.42-1.51,5.32-3.64,2.9-1.87-2.13-2.48-8.2-.11-10.09l9.54-1.01.06-2.9c3.39-1.07,3.28,2.09,4.27,2.7Z"/>
      <path class="cls-1" d="M489.35,116.25c-8.59,6.29-17.4-9.59-7.44-13.93s12.51,10.21,7.44,13.93Z"/>
      <path class="cls-1" d="M1546.58,448.65c1.61,5.1,3.07,12.11,2.07,17.42-1.2,6.38-10.03.1-6-5.49l-4.39,1.95-3.48-5.33c4.29-2.71,6.12-9.56,11.8-8.55Z"/>
      <path class="cls-1" d="M450.79,196.44c-.95-6.47,4.21-14.06,11.12-10.65,12.19,6.01-2.38,16.04-11.12,10.65Z"/>
      <path class="cls-1" d="M428.37,100.87c1.92,1.55,3.39,4.9.6,6.51-2.17,1.25-17.35,4.63-18.26,1.58-1.74-5.82,12.01-12.64,17.66-8.09Z"/>
      <path class="cls-1" d="M1500.3,504.64c5.71-.98,9.03,24-1.19,17.97-6.31-3.72-4.57-14.43,1.19-17.97Z"/>
      <path class="cls-1" d="M1544.55,140.46c-7.72,2.16-22.39,2.62-20.88-8.89,2.59-.23,2.96,2.61,5.55,3.02,5.8.9,17.69-6.2,15.33,5.87Z"/>
      <path class="cls-1" d="M1501.43,586.82c2.62,2.81-2.44,11.8-4.25,14.76s-3.34,6.87-7.51,6.98c-1.49-3.8-1.28-8.96,1.11-12.37,1.52-2.17,4.72-2.75,5.58-3.92,1.08-1.47.62-4.72,2.26-6.27.56-.57,2.48.48,2.8.81Z"/>
      <path class="cls-1" d="M1446.36,535.68c7.94-2.09,5.81,19.42-5.06,15.75-4.85-1.64.73-14.61,5.06-15.75Z"/>
      <path class="cls-1" d="M427.66,111.57c2.32,9.71-9.89,8.71-15.99,13-.39-4.33,0-8.04,2.15-11.83l13.84-1.17Z"/>
      <path class="cls-1" d="M1699.42,169.81c4.56,11-7.38,8.59-14.76,8.76-1.1-9.12,7.28-12.3,14.76-8.76Z"/>
      <path class="cls-1" d="M1548.56,637.68c2.1,6.4.87,12.57-.97,18.81-4.96,1.2-10.15-5.68-7.42-9.92.55-.85,2.38-1.08,2.96-2.02,1.05-1.7.45-4.92,1.66-6.84l3.76-.02Z"/>
      <path class="cls-1" d="M1666.66,677.56c2,9.47-5.91,15.97-14.77,11.76-3.43-7.24,5.74-5.74,7.6-6.93,1.14-.73.97-6.87,7.17-4.83Z"/>
      <path class="cls-1" d="M1663.67,662.57c2.04-.08,4.06-.18,6.05.44,8.57,2.66,6.45,18.74.47,13.53-1.42-1.24-7.54-13-6.51-13.97Z"/>
      <path class="cls-1" d="M1516.42,707.34c-1.78,1.58-7.38,2.18-9.76,1.23,2.44,5.91-3.27,6.32-8,5.99.35-3.89,2.97-6.64,7-6l-1.01-5.99c4.34.24,9.7-1.27,12.92,2.48-.57.59-.68,1.86-1.16,2.29Z"/>
      <path class="cls-1" d="M482.39,134.77c14.78-3.17,7.37,17.09-4.84,7.33-1.9-2.6,2.11-6.75,4.84-7.33Z"/>
      <path class="cls-1" d="M1589.66,659.58c-.19,8.14-7.4,8.59-14,7.99.64-11.78,4.32-10.58,14-7.99Z"/>
      <path class="cls-1" d="M1735.66,786.57c-3.71,2-15.4-8.05-13.99-9.99,7.58-4.38,15.79,1.13,13.99,9.99Z"/>
      <path class="cls-1" d="M1516.29,571.68c10.74-3.8,17.27,17.19-1.68,7.38-1.51-1.28,0-6.79,1.68-7.38Z"/>
      <path class="cls-1" d="M651.36,186.76c7.78-2.38,16.72,6.21,3.36,8.36-11.25,1.81-6.91-7.27-3.36-8.36Z"/>
      <path class="cls-1" d="M485.44,89.81c.73.67.8,1.91.71,2.87-.98,10.14-16.17,6.68-10.26-3.87,1.68-1.66,7.94-.48,9.55,1Z"/>
      <path class="cls-1" d="M504.43,546.76c3.8-.45,10.53,2.26,7.76,6.83-3.61,4.58-17.46.36-12-4.99.96-.94,2.91-1.69,4.23-1.84Z"/>
      <path class="cls-1" d="M553.36,212.28c-1.07,1.27-7.54,4.41-8.69,3.29.06-3.75-1.14-9.62,3.02-11.5,4.88-2.21,8.8,4.51,5.67,8.21Z"/>
      <path class="cls-1" d="M1511.35,579.86c2.71,2.99-1.73,5.82-4.73,5.32-8.59-1.45-8.35-11.81-1.48-10.66.62.1,5.47,4.54,6.21,5.34Z"/>
      <path class="cls-1" d="M938.52,418.42l-4.97-.44c-.93-2.46-1.85-10.66.06-11.96l6.04-1.45-1.13,13.85Z"/>
      <path class="cls-1" d="M856.41,174.82c4.04,4.07-2.01,12.83-7.5,9.53-3.64-4.16,2.8-14.26,7.5-9.53Z"/>
      <path class="cls-1" d="M1151.36,179.85c4.34,0,10.77,8.33.95,7.61-11.53-.84-8.52-7.6-.95-7.61Z"/>
      <path class="cls-1" d="M1546.67,674.56c-1.66-6.28,8.92-8.6,12.07-4.57,1.31,1.68,3.16,7.08-.84,5.86-4.33-1.33-5.6-3.48-11.24-1.29Z"/>
      <path class="cls-1" d="M968.67,199.57l-1.18-6.89c-6.91.02-2.21-10.49,3.24-6.67,1.63,1.14,2.13,12.96-2.06,13.56Z"/>
      <path class="cls-1" d="M1109.4,187.7c5.19-.74,6.17,5.81,1.66,8.76-8.23,5.41-8.37-7.81-1.66-8.76Z"/>
      <path class="cls-1" d="M543.65,201.56c-6.33,1.32-6.79-12.07-1.47-12.05,4.74.02,2.89,9.62,1.47,12.05Z"/>
      <path class="cls-1" d="M392.53,133.71l.17,8.19-3.4,1.48c-5.79-3.33-4.09-13.25,3.23-9.67Z"/>
      <path class="cls-1" d="M559.39,547.78c9.25-2.02,7.72,7.44.88,6.78-5.35-.51-6.61-5.53-.88-6.78Z"/>
      <path class="cls-1" d="M1520.52,592.43l-6.73,1.01c-1.8-3.05-.61-5.7-.12-8.88l6.56,1.94.29,5.93Z"/>
      <path class="cls-1" d="M940.66,392.57c1.91,5.42-2.52,16.43-6.25,7.71-2.14-5.01,5.14-8.85,6.25-7.71Z"/>
      <path class="cls-1" d="M1678.39,681.74c6.25-.92,8.17,8.34-.19,6.82-2.3-.42-4.59-2.66-3.1-5.02.9-.76,2.13-1.63,3.29-1.8Z"/>
      <path class="cls-1" d="M1059.66,439.57c.49,5.76-6.62,6.19-11,6v-5.01s11-.99,11-.99Z"/>
      <path class="cls-1" d="M1019.66,433.56c-4.3.79-11.87,2.97-13-2.98,4.63.87,13.43-4.49,13,2.98Z"/>
      <path class="cls-1" d="M1533.66,583.57c.83,4.94-3.31,7.8-7.56,5.06l-.34-3.97,7.9-1.09Z"/>
      <path class="cls-1" d="M1553.29,453.69c6.68-2.27,6.91,5.3.87,6.92-3.27.04-3.53-6.02-.87-6.92Z"/>
      <path class="cls-1" d="M1498.53,700.71l1.13,5.86-6.57-.92c-1.8-4.52,1.32-5.86,5.44-4.94Z"/>
      <path class="cls-1" d="M887.66,262.56l-.16,6.35c-5.99,6.13-7.28-8.61.16-6.35Z"/>
      <path class="cls-1" d="M1526.66,709.57c1.54,4.19-7.18,8.49-7.84,4.53s4.74-5.14,7.84-4.53Z"/>
      <path class="cls-1" d="M1527.66,666.56v-2.99c1.84.14,10.99-.81,10.99,1.5-2.71,2.87-7.49,1.04-10.99,1.5Z"/>
      <path class="cls-1" d="M961.66,190.57l-.93,4.56-6.06.43c-.45-4.53,3.17-5.48,6.99-4.99Z"/>
      <path class="cls-1" d="M1549.66,663.58c.06,4.28-5.04,2.84-7.99,2.98l.44-3.04,1.21-.84,6.34.9Z"/>
      <path class="cls-1" d="M1525.52,591.71c1.12.71,1.25,3.75-.31,4.95-6.02,4.64-5.54-8.65.31-4.95Z"/>
      <path class="cls-1" d="M1200.65,142.56c.54,2.73,1.26,6.32-2.48,7-3.01-2.74-2.01-7.88,2.48-7Z"/>
      <path class="cls-1" d="M1078.66,362.57c1.5,1.29-7.44,6.86-8.43,8.06-7.04,8.54,1.88,7.34,6.93,11.94,2.03,1.84,3.39,5.33,6,7.03,3.64,2.36,10.66.96,10.58,9.49-.06,6.9-11.46,6.26-16.36,5.25-.57-.12-9.31-3.06-9.75-3.34-2.02-1.24-1.76-5.26-6.47-5.53l-20.09,5.01-15.94,1.11c-2.21-4,.85-6.68,1.47-9.58.43-2.01-.19-4.12.5-6.5.63-2.18,3.81-4.87,3.56-7.94l2.48,2.97c6.08-3.11,6.21-10.92,7.61-16.88l4.9-.11.11,6.89,4.88,1.13c.98,4.91-6.4,5.23-7.02,9.47-.39,2.1.82,1.39,2.19,1.79,6.81,2.02,14.14-1.64,20.43-4.25l-.74-3.89c-2.78-.29-7.59.6-8.84-2.65-.89-2.32,3.45-1.41,4.77-2.71.87-.86.8-3.29,1.35-3.64,1.01-.65,5.89.17,8.17-.34,2.49-.56,4.37-3.78,7.7-2.79Z"/>
      <path class="cls-1" d="M1148.66,374.56c-4.68-.62-10.59.18-8.98,5.99l-4.92,1.6,2.87,8.97,8.61,1.39,1.93,8.05,2.06-5.04,5.33.17c1.05,3.51,1.52,6.37.1,9.88-3.57.1-2.82-5.15-6.98-3.99l6.07,27.33-9.57,5.29c-2.63-.01-12.83-7.92-14.27-10.35-3.03-5.11.38-3.74,1.59-5.92.98-1.76.78-5.47,1.39-6.15.77-.87,4.66.17,3.65-3.55-2.47-3.77-6.27-4.22-9.28-7.74-2.63-3.07-9.8-15.62-9.56-19.36.29-4.42,6.99-8.43,10.04-11.02,1.1-.93,1.51-2.66,2.22-3.24,4.07-3.32,9.81.07,13.19-.3,1.06-.11,5.92-4.04,5.14.07-.51,2.65-2.49,4.41-.61,7.93Z"/>
      <path class="cls-1" d="M1199.65,365.58c.57.61-.05,7.35.43,9.03.64,2.24,2.68,1.84,2.61,2.48-.14,1.45-1.6,2.21-1.76,3.13-.43,2.47,2.98,7.12-2.75,8.33-3.62.08-5.57-6.09-10.06-3.25l-.99-.67-.53-10.44,4.93-1.75.12-6.87,7.99.02Z"/>
      <path class="cls-1" d="M304.65,362.57c-1.05-.74-4.23-4.24-4.55-5.01-.48-1.17,1.58-1.97,1.42-3.31-.17-1.44-3.49-3.39-2.85-5.68,5.34,2.96,6.56,8.25,5.98,14Z"/>
    </g>
  </g>
</svg>